<mxfile host="65bd71144e">
    <diagram id="ITPO1sNUiGhxeXHjQ6FG" name="Page-1">
        <mxGraphModel dx="754" dy="725" grid="1" gridSize="10" guides="1" tooltips="1" connect="1" arrows="1" fold="1" page="1" pageScale="1" pageWidth="827" pageHeight="1169" math="0" shadow="0">
            <root>
                <mxCell id="0"/>
                <mxCell id="1" parent="0"/>
                <mxCell id="2" value="" style="whiteSpace=wrap;html=1;aspect=fixed;" parent="1" vertex="1">
                    <mxGeometry x="170" y="130" width="500" height="500" as="geometry"/>
                </mxCell>
                <mxCell id="3" value="Platform" style="rounded=0;whiteSpace=wrap;html=1;" parent="1" vertex="1">
                    <mxGeometry x="230" y="180" width="100" height="20" as="geometry"/>
                </mxCell>
                <mxCell id="9" value="Platform" style="rounded=0;whiteSpace=wrap;html=1;" parent="1" vertex="1">
                    <mxGeometry x="350" y="240" width="100" height="20" as="geometry"/>
                </mxCell>
                <mxCell id="10" value="Platform" style="rounded=0;whiteSpace=wrap;html=1;" parent="1" vertex="1">
                    <mxGeometry x="250" y="330" width="100" height="20" as="geometry"/>
                </mxCell>
                <mxCell id="11" value="Platform" style="rounded=0;whiteSpace=wrap;html=1;" parent="1" vertex="1">
                    <mxGeometry x="500" y="380" width="100" height="20" as="geometry"/>
                </mxCell>
                <mxCell id="12" value="Platform" style="rounded=0;whiteSpace=wrap;html=1;" parent="1" vertex="1">
                    <mxGeometry x="364" y="440" width="100" height="20" as="geometry"/>
                </mxCell>
                <mxCell id="13" value="Player" style="ellipse;whiteSpace=wrap;html=1;aspect=fixed;" parent="1" vertex="1">
                    <mxGeometry x="395" y="560" width="50" height="50" as="geometry"/>
                </mxCell>
            </root>
        </mxGraphModel>
    </diagram>
</mxfile>